<?xml version="1.0" standalone="no"?>
<!DOCTYPE svg PUBLIC "-//W3C//DTD SVG 20010904//EN"
 "http://www.w3.org/TR/2001/REC-SVG-20010904/DTD/svg10.dtd">
<svg version="1.0" xmlns="http://www.w3.org/2000/svg"
 width="512.000000pt" height="512.000000pt" viewBox="0 0 512.000000 512.000000"
 preserveAspectRatio="xMidYMid meet">
<metadata>
Created by potrace 1.14, written by Peter Selinger 2001-2017
</metadata>
<g transform="translate(0.000000,512.000000) scale(0.100000,-0.100000)"
fill="#000000" stroke="none">
<path d="M2226 5100 c-38 -12 -72 -45 -285 -280 -285 -314 -1286 -1434 -1519
-1698 -130 -148 -191 -291 -212 -491 -27 -272 3 -492 90 -648 l30 -52 -39 -75
c-74 -146 -83 -189 -79 -397 3 -176 5 -188 34 -272 18 -48 47 -113 65 -143 50
-84 181 -209 254 -244 84 -40 1967 -649 2333 -754 89 -26 143 -36 193 -36 68
0 70 1 110 43 109 110 1495 1796 1677 2038 61 81 64 123 19 259 -46 135 -57
206 -57 360 0 151 11 222 52 360 36 117 40 182 19 277 -13 55 -13 71 4 163 16
86 17 109 6 147 -24 93 -88 143 -181 143 -135 0 -202 -92 -230 -317 -6 -47 -8
-116 -5 -152 l6 -66 -357 -440 c-196 -242 -528 -651 -738 -909 -209 -257 -388
-477 -397 -488 -15 -19 -19 -19 -210 40 -107 34 -363 112 -569 176 -1480 453
-1539 472 -1577 508 -37 34 -55 103 -60 234 -9 203 27 268 166 294 56 10 51
12 751 -200 1017 -307 1179 -355 1312 -389 121 -31 161 -32 205 -5 32 20 798
917 1489 1744 395 473 395 473 401 519 9 70 -38 160 -94 182 -27 10 -498 121
-923 218 -588 133 -714 162 -935 211 -418 93 -687 150 -703 149 -10 0 -30 -5
-46 -9z m302 -731 c409 -97 994 -245 1034 -262 75 -31 69 -62 -39 -191 -67
-80 -124 -116 -185 -116 -96 0 -1344 304 -1379 336 -39 35 -25 69 81 192 62
74 111 102 178 102 31 0 162 -26 310 -61z m1960 -2037 l20 -84 -186 -226
c-103 -125 -310 -378 -461 -562 -439 -535 -853 -1030 -861 -1030 -26 0 -2078
657 -2220 711 -71 26 -111 66 -147 143 -26 57 -28 70 -28 186 0 115 2 130 27
183 15 31 31 57 37 57 5 0 220 -65 478 -144 257 -79 491 -151 518 -159 28 -8
163 -50 300 -92 836 -256 1074 -325 1124 -325 86 0 90 5 786 865 236 292 460
568 499 615 l71 84 11 -69 c7 -39 21 -108 32 -153z"/>
</g>
</svg>
